<svg height="67" width="67" xmlns="http://www.w3.org/2000/svg"><path d="M20.5 34.6l.7 1.3c1.4 2.5 4 4 8.7 4.4-.8.5-1.6 1.5-1.7 2.5-.8.5-2.5.6-3.7.2-2-.5-2.5-4-5.2-3.5-.6 0-.5.4 0 .8.8.5 1.6 1.2 2.2 2.5.5 1 1.4 3 4.5 3h2v3.7c0 1.2-1.5 1.5-1.5 2 0 .4.5.4 1 .4 1 0 2.7-.6 2.7-2v-5c0-1.2.7-1.6.7-1.6s0 7-.3 7.8c-.3 1-.8 1-.8 1.5 0 .7 2 .2 2.8-1.4.6-1.3.4-8 .4-8h.6v4.4c0 1.5 0 3.4.8 4.3.5.5 2.4 1.6 2.4.6 0-.5-1-1-1-2.4v-6.7c.8 0 .7 2.2.7 2.2v4s0 1.6 1.7 2.2c.7 0 2 .2 2-.2.2-.4-1.6-1-1.6-2v-4.3c0-3-.4-4.2-1.8-5 4.5-.5 7.3-1.6 8.6-4.6l.5-1.4c.4-1 .6-2.4.6-4 0-4.2-2-5.7-2.4-6.4.6-3.2 0-4.6-.4-5-1.2-.5-4 1-5.6 2-2.6-.8-8-.7-10 0-3.8-2.5-5.8-2-5.8-2s-1.3 2.2-.3 5.5c-1.2 1.5-2 2.6-2 5.5 0 1.6 0 3 .5 4.4zM33 64C16.4 64 3 50.6 3 34S16.4 4 33 4s30 13.4 30 30-13.4 30-30 30z" fill="#000"/></svg>
