<svg height="67" width="67" xmlns="http://www.w3.org/2000/svg"><path d="M37.2 22.3c-2.7 1-4.3 3.4-4 6v1h-1c-4-.5-7.2-2-10-5L20.6 23l-.3 1c-.8 2.3-.3 4.7 1.3 6.3.8 1 .6 1-.8.5l-1-.3c-.2.2.3 2 .7 3 .5 1 1.6 2 2.8 2.6l1 .6h-1.2c-1 0-1.2 0-1 .5.4 1.4 2 3 4 3.5l1.2.5-1.2.7c-1.6 1-3.6 1.5-5.6 1.5-1 0-1.7 0-1.7.2s2.6 1.4 4 2c4.5 1.2 9.8.7 13.8-1.7 2.8-1.7 5.6-5 7-8.2.7-1.7 1.4-5 1.4-6.4 0-.8 0-1 1.2-2L48 25c0-.4 0-.4-1 0-1.8.6-2 .5-1-.4.5-.7 1.3-2 1.3-2.3l-.7.2c-.4.3-1.2.6-1.8.8l-1.2.3-1-.7c-.6-.3-1.3-.7-1.8-.8-1-.3-2.7-.3-3.6 0zM33 64C16.4 64 3 50.6 3 34S16.4 4 33 4s30 13.4 30 30-13.4 30-30 30z" fill="#00aced"/></svg>
