<svg width="22" height="16" xmlns="http://www.w3.org/2000/svg">

 <g>
  <title>background</title>
  <rect fill="none" id="canvas_background" height="18" width="24" y="-1" x="-1"/>
 </g>
 <g>
  <title>Layer 1</title>
  <g stroke="null" id="svg_1" fill="#030104">
   <path stroke="null" id="svg_2" d="m11,10.85667l-2.499781,-2.165356l-7.147181,6.063283c0.259793,0.238532 0.610512,0.387079 0.997315,0.387079l17.299295,0c0.385359,0 0.734635,-0.148547 0.992985,-0.387079l-7.142851,-6.063283l-2.499781,2.165356z"/>
   <path stroke="null" id="svg_3" d="m20.646961,1.245402c-0.259793,-0.23996 -0.609069,-0.387079 -0.997315,-0.387079l-17.299295,0c-0.385359,0 -0.734635,0.148547 -0.994428,0.389936l9.644075,8.180076l9.646962,-8.182933zm-19.750004,0.867l0,11.86661l6.975429,-5.866173l-6.975429,-6.000437zm13.230655,6.000437l6.975429,5.866173l0,-11.870895l-6.975429,6.004722z"/>
  </g>
 </g>
</svg>