<svg width="23" height="16" xmlns="http://www.w3.org/2000/svg">

 <g>
  <title>background</title>
  <rect fill="none" id="canvas_background" height="18" width="25" y="-1" x="-1"/>
 </g>
 <g>
  <title>Layer 1</title>
  <g stroke="null" id="svg_2">
   <path stroke="null" id="svg_3" fill-rule="evenodd" fill="#000000" d="m3.304134,1.530182c0,0.025588 -0.063014,0.046651 -0.139953,0.046651c-0.07694,0 -0.139953,0.020889 -0.139953,0.046651c0,0.025588 -0.049958,0.046477 -0.110883,0.046477c-0.060925,0 -0.136994,0.031507 -0.168849,0.069977c-0.032029,0.03847 -0.076069,0.069977 -0.098002,0.069977c-0.076243,0 -0.508288,0.447537 -0.508288,0.526566c0,0.043866 -0.021063,0.079725 -0.046651,0.079725c-0.025763,0 -0.046651,0.031507 -0.046651,0.069977c0,0.03847 -0.021063,0.069977 -0.046651,0.069977c-0.025588,0 -0.046651,0.063014 -0.046651,0.139953c0,0.07694 -0.021063,0.139779 -0.046651,0.139779c-0.025588,0 -0.046651,0.073458 -0.046651,0.163279s-0.020889,0.163279 -0.046651,0.163279c-0.025588,0 -0.046651,0.061621 -0.046651,0.137168c0,0.075373 0.021063,0.150049 0.046651,0.16589c0.025763,0.01584 0.046651,0.110361 0.046651,0.20993s0.021063,0.193915 0.046651,0.20993c0.025588,0.01584 0.046651,0.079899 0.046651,0.142564c0,0.062666 0.021063,0.113843 0.046651,0.113843c0.025588,0 0.046651,0.039688 0.046651,0.088254s0.031507,0.100439 0.069977,0.115235c0.03847,0.014622 0.069977,0.059881 0.069977,0.100265c0,0.09278 0.185734,0.281125 0.318725,0.323425c0.055529,0.017581 0.100961,0.051525 0.100961,0.075547c0,0.023848 0.041951,0.043518 0.093302,0.043518c0.051177,0 0.093302,0.015666 0.09365,0.034988c0.000348,0.047347 0.231167,0.151442 0.335261,0.151442c0.046303,0 0.084076,0.021063 0.084076,0.046651c0,0.027677 0.170068,0.046651 0.416901,0.046651c0.229426,0 0.429956,-0.020889 0.445797,-0.046651c0.01584,-0.025588 0.065451,-0.046651 0.110013,-0.046651c0.10218,0 0.332302,-0.104791 0.33265,-0.151442c0.000348,-0.019322 0.033248,-0.034988 0.073458,-0.034988c0.11628,0 0.625438,-0.542928 0.656945,-0.700289c0.015318,-0.076591 0.046303,-0.139257 0.068758,-0.139257c0.022281,0 0.040733,-0.052395 0.040733,-0.116628c0,-0.064058 0.021063,-0.116454 0.046651,-0.116454c0.028025,0 0.046651,-0.194438 0.046651,-0.489663c0,-0.295399 -0.018626,-0.489837 -0.046651,-0.489837c-0.025588,0 -0.046651,-0.06284 -0.046651,-0.139779c0,-0.07694 -0.020018,-0.139953 -0.044562,-0.139953c-0.02437,0 -0.057618,-0.070151 -0.073632,-0.15562c-0.016189,-0.085643 -0.072414,-0.185386 -0.125157,-0.221593c-0.146568,-0.100613 -0.316288,-0.274685 -0.316288,-0.324469c0,-0.024544 -0.041951,-0.044562 -0.093302,-0.044562c-0.051351,0 -0.093302,-0.018626 -0.093302,-0.041429s-0.073458,-0.055181 -0.163105,-0.072066c-0.089821,-0.016885 -0.163279,-0.050655 -0.163279,-0.075199c0,-0.02437 -0.05257,-0.044388 -0.116628,-0.044388c-0.064058,0 -0.116628,-0.021063 -0.116628,-0.046651c0,-0.027329 -0.155446,-0.046651 -0.373035,-0.046651c-0.217589,0 -0.373035,0.019322 -0.373035,0.046651m5.316487,0c0,0.025588 -0.052395,0.046651 -0.116628,0.046651c-0.064058,0 -0.116454,0.018626 -0.116454,0.041429s-0.073458,0.055181 -0.163279,0.072066c-0.089821,0.016711 -0.163279,0.050655 -0.163279,0.075025c0,0.024544 -0.032203,0.044562 -0.071717,0.044562c-0.080943,0 -0.441271,0.349361 -0.441271,0.427867c0,0.028025 -0.036729,0.085121 -0.081639,0.126898c-0.181905,0.169197 -0.216371,0.300447 -0.236215,0.902386c-0.016189,0.492448 -0.006615,0.614298 0.055877,0.709689c0.041429,0.063362 0.075373,0.147264 0.075373,0.186779c0,0.03934 0.021063,0.071543 0.046651,0.071543c0.025763,0 0.046651,0.022455 0.046651,0.050133c0,0.083902 0.526392,0.584009 0.68793,0.653638c0.08338,0.035859 0.151616,0.080943 0.151616,0.100439c0,0.019322 0.051177,0.035162 0.113843,0.035162c0.062492,0 0.126724,0.021063 0.142564,0.046651c0.01584,0.025763 0.215326,0.046651 0.443186,0.046651c0.227685,0 0.427171,-0.020889 0.443012,-0.046651c0.01584,-0.025588 0.080073,-0.046651 0.142564,-0.046651c0.062666,0 0.113843,-0.020889 0.113843,-0.046651c0,-0.025588 0.041951,-0.046477 0.093302,-0.046477c0.051351,0 0.093302,-0.021063 0.093302,-0.046651c0,-0.025763 0.031507,-0.046651 0.069977,-0.046651c0.03847,0 0.069977,-0.021063 0.069977,-0.046651c0,-0.025763 0.031681,-0.046651 0.070325,-0.046651c0.090169,0 0.349361,-0.246137 0.349361,-0.331954c0,-0.036033 0.041951,-0.091562 0.093302,-0.123591c0.051177,-0.032029 0.093302,-0.087906 0.093302,-0.123939c0,-0.036207 0.0235,-0.073632 0.052395,-0.083206c0.02907,-0.009574 0.063188,-0.126724 0.075895,-0.260411c0.012881,-0.133513 0.041777,-0.24283 0.064058,-0.24283c0.022455,0 0.040733,-0.125854 0.040733,-0.279907c0,-0.153879 -0.018277,-0.279733 -0.040559,-0.279733s-0.055007,-0.126376 -0.072414,-0.280951c-0.023151,-0.205056 -0.056399,-0.296269 -0.122546,-0.337698c-0.049958,-0.031159 -0.090865,-0.082858 -0.090865,-0.114887c0,-0.080073 -0.4498,-0.525695 -0.530743,-0.525695c-0.036033,0 -0.077636,-0.031507 -0.092432,-0.069977c-0.015666,-0.040907 -0.085643,-0.069977 -0.168153,-0.069977c-0.07781,0 -0.14152,-0.020889 -0.14152,-0.046477c0,-0.025763 -0.052395,-0.046651 -0.116454,-0.046651c-0.064232,0 -0.116628,-0.021063 -0.116628,-0.046651c0,-0.027329 -0.155446,-0.046651 -0.373035,-0.046651c-0.217763,0 -0.373209,0.019322 -0.373209,0.046651m5.316661,0c0,0.025588 -0.05257,0.046651 -0.116628,0.046651c-0.064058,0 -0.116628,0.020889 -0.116628,0.046651c0,0.025588 -0.022977,0.046477 -0.051177,0.046477c-0.106184,0 -0.397405,0.160842 -0.541884,0.299403c-0.08251,0.079028 -0.191478,0.182949 -0.242307,0.230819c-0.050829,0.048044 -0.105661,0.147612 -0.12185,0.221593c-0.016189,0.07398 -0.048914,0.134383 -0.072414,0.134383c-0.023674,0 -0.042996,0.063014 -0.042996,0.139953c0,0.07694 -0.021063,0.139779 -0.046651,0.139779c-0.028025,0 -0.046651,0.194438 -0.046651,0.489837c0,0.295225 0.018626,0.489663 0.046651,0.489663c0.025588,0 0.046651,0.052395 0.046651,0.116454c0,0.064232 0.018452,0.116628 0.040733,0.116628c0.022455,0 0.05344,0.062666 0.068758,0.139257c0.031507,0.15736 0.540666,0.700289 0.656945,0.700289c0.04021,0 0.07311,0.020889 0.07311,0.046651c0,0.025588 0.031333,0.046651 0.069803,0.046651c0.03847,0 0.069977,0.020889 0.069977,0.046477c0,0.025763 0.061795,0.046651 0.137168,0.046651c0.075547,0 0.150224,0.021063 0.166064,0.046651c0.01584,0.025763 0.216371,0.046651 0.445797,0.046651c0.246833,0 0.416901,-0.018974 0.416901,-0.046651c0,-0.025588 0.037773,-0.046651 0.084076,-0.046651c0.104095,0 0.334913,-0.104095 0.335261,-0.151442c0.000348,-0.019322 0.042473,-0.034988 0.09365,-0.034988c0.051351,0 0.093302,-0.021063 0.093302,-0.046651c0,-0.025763 0.029244,-0.046651 0.065103,-0.046651c0.092606,0 0.354583,-0.256059 0.354583,-0.346576c0,-0.041951 0.031507,-0.088254 0.069977,-0.102876c0.03847,-0.014796 0.069977,-0.066669 0.069977,-0.115235s0.021063,-0.088254 0.046651,-0.088254c0.025588,0 0.046651,-0.052395 0.046651,-0.116628c0,-0.064058 0.021063,-0.116628 0.046651,-0.116628c0.025588,0 0.046651,-0.072066 0.046651,-0.16032c0,-0.088254 0.020889,-0.173549 0.046651,-0.18939c0.025588,-0.01584 0.046651,-0.11158 0.046651,-0.212541c0,-0.101135 -0.021063,-0.183819 -0.046651,-0.183819c-0.025763,0 -0.046651,-0.094521 -0.046651,-0.20993c0,-0.115409 -0.021063,-0.209756 -0.046651,-0.209756c-0.025588,0 -0.046651,-0.042125 -0.046651,-0.093302c0,-0.051351 -0.021063,-0.093302 -0.046651,-0.093302c-0.025588,0 -0.046651,-0.031507 -0.046651,-0.069977c0,-0.03847 -0.020889,-0.069977 -0.046651,-0.069977c-0.025588,0 -0.046999,-0.036729 -0.047347,-0.081639c-0.000696,-0.084599 -0.421601,-0.524651 -0.501848,-0.524651c-0.025066,0 -0.071717,-0.031507 -0.103747,-0.069977c-0.031855,-0.03847 -0.107924,-0.069977 -0.168849,-0.069977s-0.110883,-0.020889 -0.110883,-0.046477c0,-0.025763 -0.063014,-0.046651 -0.139953,-0.046651c-0.07694,0 -0.139953,-0.021063 -0.139953,-0.046651c0,-0.027329 -0.155446,-0.046651 -0.373035,-0.046651c-0.217589,0 -0.373035,0.019322 -0.373035,0.046651m5.45644,0c0,0.025588 -0.073458,0.046651 -0.163279,0.046651c-0.089647,0 -0.163105,0.018626 -0.163105,0.041429s-0.07398,0.055181 -0.164323,0.07224c-0.090343,0.016885 -0.189912,0.071717 -0.221071,0.121676c-0.031333,0.050133 -0.083554,0.091039 -0.115932,0.091039c-0.087558,0 -0.338221,0.254492 -0.338221,0.343095c0,0.042125 -0.01584,0.076591 -0.035162,0.076591c-0.019496,0 -0.064929,0.068236 -0.10131,0.151616c-0.036207,0.08338 -0.088602,0.166586 -0.11628,0.184864c-0.075721,0.049958 -0.068236,1.258884 0.007833,1.284124c0.032203,0.010792 0.058314,0.080769 0.058314,0.155446c0,0.074851 0.016537,0.136124 0.036729,0.136124c0.020018,0 0.076243,0.068236 0.124809,0.151616c0.097306,0.16676 0.259366,0.324295 0.456415,0.443708c0.070673,0.042647 0.128291,0.094173 0.128291,0.114191c0,0.020192 0.063014,0.036729 0.139953,0.036729c0.07694,0 0.139953,0.020889 0.139953,0.046477c0,0.025763 0.052395,0.046651 0.116454,0.046651c0.064232,0 0.116628,0.022629 0.116628,0.050133c0,0.033422 0.128291,0.042822 0.384698,0.0282c0.422471,-0.024022 0.68793,-0.071021 0.68793,-0.121502c0,-0.017929 0.073458,-0.061447 0.163279,-0.09661c0.089821,-0.035336 0.163279,-0.081117 0.163279,-0.102006c0,-0.020889 0.037599,-0.037948 0.083554,-0.037948c0.108969,0 0.388527,-0.306191 0.4921,-0.539273c0.04491,-0.100961 0.101658,-0.220026 0.126028,-0.264588c0.024544,-0.044562 0.044388,-0.123243 0.044388,-0.174942c0,-0.051525 0.021063,-0.093824 0.046651,-0.093824c0.027329,0 0.046651,-0.155446 0.046651,-0.373209c0,-0.217589 -0.019322,-0.373035 -0.046651,-0.373035c-0.025588,0 -0.046651,-0.063014 -0.046651,-0.139953c0,-0.07694 -0.018277,-0.139779 -0.040559,-0.139779c-0.022455,0 -0.05344,-0.079028 -0.068758,-0.175464c-0.015666,-0.097654 -0.069977,-0.205404 -0.122546,-0.243526c-0.052047,-0.037425 -0.094521,-0.084251 -0.094521,-0.104095c0,-0.058662 -0.199138,-0.269811 -0.254666,-0.269811c-0.0282,0 -0.081465,-0.041951 -0.118369,-0.093128c-0.036729,-0.051177 -0.13595,-0.105835 -0.220026,-0.121676c-0.084251,-0.01584 -0.153183,-0.047347 -0.153183,-0.070151s-0.073458,-0.041429 -0.163105,-0.041429c-0.089821,0 -0.163279,-0.021063 -0.163279,-0.046651c0,-0.026633 -0.139953,-0.046651 -0.326558,-0.046651c-0.18643,0 -0.326384,0.020018 -0.326384,0.046651m-17.348819,4.010778c0,0.025588 -0.03934,0.046477 -0.087558,0.046477c-0.112624,0 -0.184342,0.088254 -0.221071,0.27277c-0.016189,0.080769 -0.04787,0.14709 -0.070325,0.14709s-0.040733,0.031507 -0.040733,0.069977c0,0.03847 -0.021063,0.069803 -0.046651,0.069803c-0.025763,0 -0.046651,0.063014 -0.046651,0.139953c0,0.07694 -0.016015,0.139953 -0.035685,0.139953c-0.037425,0 -0.197571,0.340484 -0.197571,0.420034c0,0.025414 -0.020889,0.046303 -0.046651,0.046303c-0.025588,0 -0.046651,0.041951 -0.046651,0.093302c0,0.051351 -0.01584,0.093302 -0.035162,0.093302c-0.044388,0 -0.133861,0.209234 -0.174419,0.408023c-0.017059,0.08338 -0.050307,0.151616 -0.073806,0.151616c-0.023674,0 -0.042996,0.063014 -0.042996,0.139953c0,0.07694 -0.021063,0.139779 -0.046651,0.139779c-0.025588,0 -0.046651,0.031507 -0.046651,0.069977c0,0.03847 -0.020889,0.069977 -0.046651,0.069977c-0.025588,0 -0.046651,0.041951 -0.046651,0.093302c0,0.051351 -0.01967,0.093302 -0.043692,0.093302c-0.024196,0 -0.057966,0.094347 -0.075373,0.209756c-0.017233,0.115409 -0.046129,0.20993 -0.064058,0.20993c-0.017929,0 -0.061447,0.073458 -0.09661,0.163279c-0.035336,0.089647 -0.081117,0.163105 -0.102006,0.163105c-0.124635,0 -0.033596,0.520473 0.116628,0.666171c0.248226,0.241089 0.591668,0.368683 0.591668,0.220026c0,-0.025763 0.028025,-0.046651 0.062492,-0.046651c0.070499,0 0.357194,-0.298358 0.357194,-0.371816c0,-0.026459 0.021063,-0.04787 0.046651,-0.04787c0.025588,0 0.046651,-0.063014 0.046651,-0.139953c0,-0.07694 0.016015,-0.139953 0.035685,-0.139953c0.019496,0 0.071891,-0.083902 0.116454,-0.186604c0.044388,-0.102528 0.106009,-0.18643 0.13682,-0.18643c0.043692,0 0.043692,0.012359 0.000174,0.055877c-0.072588,0.072762 -0.081814,5.074179 -0.0094,5.074179c0.025763,0 0.046651,0.069629 0.046651,0.154749c0,0.173375 0.168675,0.358239 0.326906,0.358239c0.051003,0 0.09278,0.020889 0.09278,0.046651c0,0.025588 0.115583,0.046651 0.256581,0.046651c0.140998,0 0.256581,-0.021063 0.256581,-0.046651c0,-0.025763 0.031333,-0.046651 0.069803,-0.046651c0.03847,0 0.070151,-0.01584 0.070151,-0.034988c0,-0.019322 0.063014,-0.07694 0.139779,-0.128291l0.139605,-0.093302l0.000174,-1.529043l0.000174,-1.529043l0.431349,0.013403l0.431349,0.013403l0.024544,1.492314c0.025414,1.545057 0.042996,1.702244 0.190782,1.702244c0.048392,0 0.08808,0.015666 0.088254,0.034988c0.000174,0.019148 0.056747,0.061273 0.125854,0.093302c0.149701,0.069454 0.52674,0.07781 0.52674,0.011663c0,-0.025763 0.041951,-0.046651 0.093128,-0.046651c0.051351,0 0.093302,-0.021063 0.093302,-0.046651c0,-0.025588 0.031507,-0.046651 0.069977,-0.046651c0.03847,0 0.069977,-0.031507 0.069977,-0.069977c0,-0.03847 0.021063,-0.069977 0.046651,-0.069977c0.028548,0 0.046651,-0.224378 0.046651,-0.58018c0,-0.33648 0.019496,-0.592365 0.046651,-0.609076c0.029766,-0.018452 0.046651,-0.707774 0.046651,-1.914785c0,-1.226333 -0.016363,-1.886063 -0.046651,-1.886063c-0.025763,0 -0.046651,-0.094347 -0.046651,-0.20993c0,-0.115409 0.020889,-0.209756 0.046651,-0.209756c0.025588,0 0.046651,0.031507 0.046651,0.069977c0,0.03847 0.018626,0.069977 0.041429,0.069977s0.055181,0.073458 0.072066,0.163105c0.016885,0.089821 0.046651,0.163279 0.066321,0.163279c0.019844,0 0.064755,0.073458 0.099917,0.163279c0.035336,0.089647 0.081117,0.163105 0.102006,0.163105c0.020889,0 0.037948,0.033074 0.037948,0.073284c0,0.102006 0.115061,0.206623 0.227163,0.206623c0.051525,0 0.106706,0.020889 0.122546,0.046651c0.081814,0.13212 0.414986,0.0282 0.63536,-0.198267c0.16972,-0.174071 0.18086,-0.166238 0.18086,0.128291c0,0.140998 -0.021063,0.256581 -0.046651,0.256581c-0.028025,0 -0.046651,0.18643 -0.046651,0.466337c0,0.455545 0.002437,0.466337 0.107228,0.466337c0.215848,0 0.219156,0.02524 0.219156,1.595538c0,1.495273 0.007311,1.569079 0.171634,1.748895c0.030288,0.032899 0.086688,0.060055 0.125505,0.060055c0.038818,0 0.083554,0.020889 0.099395,0.046651c0.041081,0.066495 0.51821,0.057792 0.63832,-0.011663c0.20523,-0.118717 0.31768,-0.241263 0.31768,-0.346576c0,-0.059532 0.021063,-0.108098 0.046651,-0.108098c0.030114,0 0.046651,-0.528655 0.046651,-1.492488l0,-1.492314l0.416205,0l0.013403,1.576216l0.013403,1.576042l0.119239,0.114539c0.065451,0.06284 0.164846,0.14065 0.220897,0.172679c0.120806,0.06928 0.615864,0.07868 0.615864,0.011663c0,-0.025763 0.020889,-0.046651 0.046303,-0.046651c0.072414,0 0.280255,-0.196527 0.280255,-0.264937c0,-0.033944 0.020889,-0.061621 0.046651,-0.061621c0.030114,0 0.046651,-0.543973 0.046651,-1.538965l0,-1.538965l0.143087,0c0.078854,0 0.173375,-0.02994 0.20993,-0.066669c0.075547,-0.075547 0.091213,-0.353017 0.020018,-0.353017c-0.026633,0 -0.046651,-0.139953 -0.046651,-0.326558c0,-0.18643 -0.020018,-0.326384 -0.046651,-0.326384c-0.025588,0 -0.046651,-0.084076 -0.046651,-0.186604c0,-0.221071 0.016885,-0.226641 0.18086,-0.058314c0.213934,0.219852 0.658686,0.353713 0.658686,0.198267c0,-0.025763 0.043344,-0.046651 0.09661,-0.046651c0.114365,0 0.229774,-0.103747 0.229774,-0.206623c0,-0.04021 0.01584,-0.073284 0.035336,-0.073284c0.019322,0 0.064929,-0.068062 0.101135,-0.151442c0.036207,-0.08338 0.084076,-0.163801 0.106358,-0.178771c0.022107,-0.014796 0.053266,-0.109317 0.069106,-0.209756c0.026807,-0.169371 0.080073,-0.250315 0.166064,-0.252055c0.019322,-0.000348 0.034988,1.206662 0.034988,2.682439l0,2.683136l0.14152,0.138387c0.07781,0.076069 0.172331,0.138387 0.20993,0.138387c0.037599,0 0.068236,0.020889 0.068236,0.046651c0,0.066147 0.377039,0.057792 0.52674,-0.011663c0.069106,-0.032029 0.12568,-0.074154 0.125854,-0.093302c0.000174,-0.019322 0.037077,-0.035162 0.081988,-0.035336c0.193045,-0.00087 0.217067,-0.178597 0.2343,-1.736884l0.016537,-1.480651l0.833454,0l0,1.538965c0,0.846509 0.016015,1.538965 0.035511,1.538965c0.019496,0 0.088776,0.047173 0.153879,0.104965c0.232385,0.205926 0.743459,0.32621 0.743459,0.174942c0,-0.025763 0.041777,-0.046651 0.09278,-0.046651c0.133339,0 0.326906,-0.184516 0.326906,-0.311588c0,-0.059532 0.020889,-0.108098 0.046651,-0.108098c0.030462,0 0.046651,-0.89403 0.046651,-2.588441c0,-2.375726 0.02437,-2.899506 0.113495,-2.425162c0.016711,0.089821 0.050655,0.163279 0.075025,0.163279c0.024544,0 0.044562,0.041951 0.044562,0.093302c0,0.051351 0.021063,0.093302 0.046651,0.093302c0.025588,0 0.046651,0.042473 0.046651,0.094521c0,0.108795 0.26424,0.418467 0.357194,0.418467c0.034466,0 0.062492,0.020889 0.062492,0.046651c0,0.228556 0.622827,-0.076765 0.822313,-0.403323c0.030462,-0.049784 0.069977,-0.068932 0.093302,-0.045084c0.022977,0.0235 0.015318,0.050481 -0.017755,0.062318c-0.038992,0.013926 -0.058314,0.12742 -0.058314,0.343269c0,0.183993 -0.020018,0.322554 -0.046651,0.322554c-0.027677,0 -0.046651,0.171112 -0.046651,0.41986l0,0.419686l0.326384,0l0,1.538965c0,0.994992 0.016537,1.538965 0.046651,1.538965c0.025763,0 0.046651,0.031507 0.046651,0.069977c0,0.090517 0.166064,0.256581 0.256581,0.256581c0.03847,0 0.069977,0.020889 0.069977,0.046651c0,0.025937 0.124287,0.046651 0.279733,0.046651s0.279907,-0.020714 0.279907,-0.046651c0,-0.025763 0.032377,-0.046651 0.071891,-0.046651c0.039688,0 0.128813,-0.052744 0.198267,-0.116976l0.126202,-0.116976l0.014448,-1.585268l0.014448,-1.585268l0.414116,0l0,1.492314c0,0.963833 0.016537,1.492488 0.046651,1.492488c0.025588,0 0.046651,0.048566 0.046651,0.108098c0,0.105313 0.112276,0.227859 0.31768,0.346576c0.119761,0.06928 0.614994,0.07868 0.614994,0.011663c0,-0.025763 0.021933,-0.046651 0.048566,-0.046651c0.026807,0 0.09191,-0.040385 0.144653,-0.089473c0.220722,-0.205578 0.226641,-0.253448 0.226641,-1.827923l0,-1.487091l0.146394,0c0.084773,0 0.172505,-0.034466 0.208363,-0.081639c0.072066,-0.094869 0.08721,-0.571302 0.018277,-0.571302c-0.026981,0 -0.046651,-0.147612 -0.046651,-0.349709c0,-0.370424 0.013926,-0.398275 0.134905,-0.268244c0.260063,0.279559 0.602461,0.253274 0.880627,-0.067366c0.123591,-0.142564 0.13682,-0.803861 0.016885,-0.843724c-0.029244,-0.009748 -0.053092,-0.036903 -0.053092,-0.060229c0,-0.076591 -0.161016,-0.41603 -0.197571,-0.41603c-0.019496,0 -0.035511,-0.037948 -0.035511,-0.084076c0,-0.104269 -0.104269,-0.334913 -0.151616,-0.335435c-0.019322,-0.000174 -0.034988,-0.038296 -0.034988,-0.084599c0,-0.046477 -0.030811,-0.125157 -0.06841,-0.174942c-0.037773,-0.049784 -0.06928,-0.127246 -0.069977,-0.172157c-0.00087,-0.04491 -0.022455,-0.081639 -0.048218,-0.081639c-0.025588,0 -0.046651,-0.052395 -0.046651,-0.116628c0,-0.064058 -0.020889,-0.116454 -0.046651,-0.116454c-0.025588,0 -0.046477,-0.041951 -0.046477,-0.093302c0,-0.051351 -0.021063,-0.093302 -0.046651,-0.093302c-0.025763,0 -0.046651,-0.041777 -0.046651,-0.092954c0,-0.114887 -0.149005,-0.466685 -0.197571,-0.466685c-0.01967,0 -0.035685,-0.041951 -0.035685,-0.093302c0,-0.051351 -0.020889,-0.093302 -0.046651,-0.093302c-0.025588,0 -0.046651,-0.041951 -0.046651,-0.093302c0,-0.051177 -0.019322,-0.093128 -0.042822,-0.093128c-0.023674,0 -0.057618,-0.067017 -0.075547,-0.148657c-0.033074,-0.150224 -0.182427,-0.313328 -0.289655,-0.316288c-0.032029,-0.00087 -0.058314,-0.022455 -0.058314,-0.048044c0,-0.030114 -0.466337,-0.046651 -1.305883,-0.046651c-0.733537,0 -1.305709,0.018103 -1.305709,0.041603c0,0.022803 -0.047173,0.053614 -0.104965,0.068584c-0.100091,0.025763 -0.221593,0.213237 -0.221593,0.34205c0,0.033422 -0.020018,0.060751 -0.044388,0.060751c-0.024544,0 -0.058314,0.073458 -0.075199,0.163105c-0.016885,0.089821 -0.049262,0.163279 -0.072066,0.163279s-0.041429,0.031507 -0.041429,0.069977c0,0.03847 -0.021063,0.069977 -0.046651,0.069977c-0.025588,0 -0.046651,0.041951 -0.046651,0.093302c0,0.051177 -0.021063,0.093302 -0.046651,0.093302c-0.025588,0 -0.046651,0.052395 -0.046651,0.116454c0,0.064232 -0.018626,0.116628 -0.041429,0.116628s-0.055181,0.073458 -0.072066,0.163279c-0.016885,0.089821 -0.050655,0.163279 -0.075199,0.163279c-0.02437,0 -0.044388,0.041951 -0.044388,0.093128c0,0.051351 -0.021063,0.093302 -0.046651,0.093302c-0.025763,0 -0.046651,0.043518 -0.046651,0.09661c0,0.140301 -0.134557,0.267025 -0.190086,0.179119c-0.022977,-0.036207 -0.042125,-0.092084 -0.042473,-0.124113c-0.000348,-0.032029 -0.021585,-0.058314 -0.047347,-0.058314c-0.025588,0 -0.046651,-0.037773 -0.046651,-0.083902c0,-0.104269 -0.104269,-0.334913 -0.151442,-0.335435c-0.019322,-0.000174 -0.034988,-0.042299 -0.034988,-0.09365c0,-0.051351 -0.019322,-0.093302 -0.042996,-0.093302s-0.056747,-0.062666 -0.073458,-0.139431c-0.016885,-0.076591 -0.050133,-0.151268 -0.073806,-0.16589c-0.023674,-0.014622 -0.042996,-0.07781 -0.042996,-0.140476c0,-0.062666 -0.021063,-0.113843 -0.046651,-0.113843c-0.025588,0 -0.046651,-0.041951 -0.046651,-0.093302c0,-0.051177 -0.020889,-0.093302 -0.046651,-0.093302c-0.025588,0 -0.046651,-0.031333 -0.046651,-0.069803c0,-0.03847 -0.018277,-0.069977 -0.040733,-0.069977s-0.053614,-0.064232 -0.06928,-0.142738c-0.032725,-0.163279 -0.129683,-0.277122 -0.236389,-0.277122c-0.04021,0 -0.073284,-0.020889 -0.073284,-0.046477c0,-0.030288 -0.559639,-0.046651 -1.585616,-0.046651s-1.585616,0.016363 -1.585616,0.046651c0,0.025588 -0.037425,0.046477 -0.083032,0.046477c-0.108969,0 -0.23987,0.157186 -0.274336,0.328995c-0.01497,0.075547 -0.045781,0.137516 -0.068236,0.137516s-0.040733,0.041951 -0.040733,0.093128c0,0.051351 -0.021063,0.093302 -0.046651,0.093302c-0.025763,0 -0.046651,0.041951 -0.046651,0.093302c0,0.051351 -0.016015,0.093302 -0.035685,0.093302c-0.037425,0 -0.197571,0.340484 -0.197571,0.420034c0,0.025414 -0.020889,0.046303 -0.046651,0.046303c-0.025588,0 -0.046651,0.063014 -0.046651,0.139953c0,0.07694 -0.020889,0.139953 -0.046651,0.139953c-0.025588,0 -0.046477,0.031333 -0.046477,0.069977c0,0.03847 -0.021063,0.069803 -0.046651,0.069803c-0.025763,0 -0.047347,0.057792 -0.048218,0.128291c-0.001567,0.140127 -0.094347,0.291569 -0.178597,0.291569c-0.02907,0 -0.053092,-0.031507 -0.053092,-0.069977c0,-0.03847 -0.020889,-0.069977 -0.046651,-0.069977c-0.025588,0 -0.046651,-0.041951 -0.046651,-0.093302c0,-0.051351 -0.020889,-0.093302 -0.046651,-0.093302c-0.025588,0 -0.046651,-0.041951 -0.046651,-0.093302c0,-0.051177 -0.020889,-0.093128 -0.046477,-0.093128c-0.025763,0 -0.046825,-0.036729 -0.046999,-0.081639c-0.000174,-0.04491 -0.031681,-0.141694 -0.069977,-0.215326c-0.038296,-0.073458 -0.069629,-0.162583 -0.069629,-0.198093c0,-0.035511 -0.01584,-0.064755 -0.034988,-0.065103c-0.047347,-0.000348 -0.151616,-0.231167 -0.151616,-0.335261c0,-0.046303 -0.018626,-0.084076 -0.041429,-0.084076s-0.055181,-0.073458 -0.072066,-0.163105c-0.016885,-0.089821 -0.050655,-0.163279 -0.075199,-0.163279c-0.02437,0 -0.044388,-0.033422 -0.044388,-0.074154c0,-0.08251 -0.177553,-0.2484 -0.268244,-0.250837c-0.032029,-0.00087 -0.058314,-0.022455 -0.058314,-0.048044c0,-0.030114 -0.466337,-0.046651 -1.305709,-0.046651c-0.839546,0 -1.305883,0.016537 -1.305883,0.046651c0,0.025588 -0.026285,0.047173 -0.058314,0.048044c-0.140824,0.00383 -0.408023,0.385568 -0.408023,0.583139c0,0.037599 -0.021063,0.068236 -0.046651,0.068236c-0.025763,0 -0.046651,0.037773 -0.046651,0.084076c0,0.104095 -0.104269,0.334913 -0.151616,0.335261c-0.019148,0.000348 -0.035685,0.037251 -0.036381,0.081988c-0.00087,0.04491 -0.032377,0.122372 -0.069977,0.172157c-0.037773,0.049784 -0.068584,0.139083 -0.068584,0.198267c0,0.059184 -0.020889,0.10775 -0.046651,0.10775c-0.025588,0 -0.046477,0.041951 -0.046477,0.093128c0,0.051351 -0.021063,0.093302 -0.046651,0.093302c-0.025763,0 -0.046651,0.041951 -0.046651,0.093302c0,0.051351 -0.021063,0.093302 -0.046651,0.093302c-0.025763,0 -0.046651,0.031507 -0.046651,0.069977c0,0.03847 -0.031507,0.069977 -0.069977,0.069977c-0.03847,0 -0.069977,-0.031507 -0.069977,-0.069977c0,-0.03847 -0.020889,-0.069977 -0.046651,-0.069977c-0.025588,0 -0.046651,-0.063014 -0.046651,-0.139953c0,-0.07694 -0.020889,-0.139953 -0.046651,-0.139953c-0.025588,0 -0.046651,-0.031333 -0.046651,-0.069803c0,-0.038644 -0.020889,-0.069977 -0.046477,-0.069977c-0.025763,0 -0.046651,-0.052744 -0.046651,-0.116976c0,-0.115235 -0.223334,-0.591146 -0.291569,-0.621435c-0.019148,-0.008529 -0.034988,-0.055877 -0.034988,-0.104965c0,-0.049262 -0.018626,-0.089473 -0.041429,-0.089473s-0.054832,-0.071369 -0.071195,-0.158405c-0.041429,-0.221593 -0.163105,-0.450323 -0.25397,-0.478c-0.041951,-0.012707 -0.112798,-0.042647 -0.15736,-0.066495c-0.112972,-0.060403 -3.206916,-0.057095 -3.206916,0.003481"/>
  </g>
 </g>
</svg>