<svg width="16" height="16" xmlns="http://www.w3.org/2000/svg">

 <g>
  <title>background</title>
  <rect fill="none" id="canvas_background" height="18" width="18" y="-1" x="-1"/>
 </g>
 <g>
  <title>Layer 1</title>
  <path stroke="null" id="svg_1" fill-rule="evenodd" d="m10.656413,1.183301l0.740662,0l0.270627,0.060526q0.270627,0.060526 0.498523,0.151314t0.427305,0.21184t0.370331,0.242103l0.299114,0.257234q0.128192,0.136183 0.398818,0.075657t0.612471,-0.181577t0.626714,-0.272365t0.384575,-0.196708l0.071218,-0.045394l0.014244,-0.015131l0.014244,0l0.014244,-0.015131l0.014244,0l0,-0.015131l0.014244,0l0.014244,-0.015131l0.014244,0l0,0.030263l-0.014244,0.015131l0,0.045394l-0.014244,0.015131l0,0.015131l-0.014244,0.030263l-0.014244,0.060526l-0.128192,0.302628q-0.113948,0.257234 -0.327601,0.529599t-0.341844,0.408548l-0.213653,0.196708q-0.042731,0.060526 -0.113948,0.10592l-0.071218,0.045394l-0.014244,0.015131l-0.014244,0.015131l-0.014244,0l-0.014244,0.015131l-0.014244,0.015131l-0.014244,0l0,0.015131l-0.014244,0l0.071218,0l0.398818,-0.075657q0.398818,-0.090788 0.769149,-0.226971t0.384575,-0.136183t0.042731,-0.015131l0.014244,0l0.014244,-0.015131l0.014244,0l0.014244,-0.015131l0.014244,0l0.028487,-0.015131l0.028487,0l0,0.030263l-0.014244,0.015131l-0.014244,0l0,0.015131l-0.014244,0l0,0.015131l-0.014244,0l0,0.030263l-0.014244,0l-0.170922,0.257234l-0.199409,0.257234l-0.042731,0.045394q-0.014244,0.045394 -0.299114,0.332891t-0.541253,0.529599q-0.270627,0.226971 -0.270627,0.574993l-0.042731,0.75657q-0.014244,0.423679 -0.099705,0.923016t-0.24214,1.104593t-0.398818,1.210513t-0.484279,1.059198t-0.470036,0.801965t-0.441549,0.605256t-0.555497,0.65065l-0.370331,0.393417l-0.28487,0.242103l-0.52701,0.438811q-0.28487,0.21184 -0.512766,0.348022t-0.56974,0.332891q-0.327601,0.196708 -0.712175,0.348022t-0.81188,0.302628t-0.826123,0.21184t-0.911584,0.121051l-0.498523,0.060526l-0.925828,0l-0.128192,-0.015131l-0.199409,-0.015131l-0.583984,-0.075657q-0.498523,-0.060526 -0.81188,-0.151314t-0.868854,-0.287497t-0.982802,-0.438811l-0.512766,-0.272365l-0.227896,-0.136183l-0.128192,-0.075657l0,-0.015131l-0.014244,0l0,-0.015131l-0.028487,0l0,-0.015131l-0.014244,0l0,-0.015131l-0.014244,0l0,-0.030263l0.014244,0l0.014244,0.015131l0.056974,0l0.356088,0.030263l0.598227,0q0.313357,-0.015131 0.655201,-0.075657t0.797636,-0.181577t0.840367,-0.302628l0.541253,-0.272365l0.484279,-0.31776l0.327601,-0.242103l0.014244,0l0,-0.015131l0.014244,0l0,-0.015131l0.028487,0l0,-0.030263l0.014244,0l0,-0.015131l-0.113948,0l-0.227896,-0.015131q-0.113948,0 -0.327601,-0.075657t-0.498523,-0.181577t-0.512766,-0.287497t-0.356088,-0.272365l-0.28487,-0.302628q-0.170922,-0.21184 -0.299114,-0.423679t-0.24214,-0.484205l-0.128192,-0.272365l0,-0.015131l-0.014244,-0.030263l0,-0.030263l0.014244,0l0.028487,0.015131l0.156679,0.015131q0.156679,0.030263 0.484279,0.015131t0.470036,-0.030263t0.156679,-0.030263l0.028487,0l0.028487,-0.015131l0.042731,0l0,-0.015131l0.014244,0l0,-0.015131l-0.056974,0l-0.028487,-0.015131l-0.028487,0l-0.028487,-0.015131l-0.099705,-0.030263l-0.384575,-0.166445q-0.313357,-0.136183 -0.498523,-0.272365t-0.356088,-0.302628q-0.170922,-0.166445 -0.370331,-0.423679t-0.356088,-0.590125t-0.227896,-0.65065t-0.099705,-0.635519l-0.028487,-0.31776l0.028487,0l0.014244,0.015131l0.014244,0.015131l0.014244,0l0.014244,0.015131l0.213653,0.10592q0.227896,0.10592 0.555497,0.181577t0.384575,0.075657l0.071218,0.015131l0.128192,0l0,-0.015131l-0.014244,0l0,-0.015131l-0.014244,0l-0.014244,-0.015131l-0.014244,0l0,-0.015131l-0.014244,0l-0.014244,-0.015131l-0.014244,0l0,-0.015131l-0.128192,-0.090788q-0.113948,-0.090788 -0.24214,-0.242103t-0.256383,-0.31776t-0.227896,-0.363154t-0.213653,-0.484205q-0.113948,-0.287497 -0.170922,-0.590125t-0.056974,-0.574993t0.014244,-0.484205t0.085461,-0.469074t0.185166,-0.544731l0.113948,-0.287497l0.014244,-0.015131l0,-0.030263l0.014244,0l0,-0.015131l0.014244,0l0,0.015131l0.014244,0l0,0.015131l0.014244,0.015131l0,0.015131l0.014244,0l0,0.015131l0.185166,0.226971l0.455792,0.499336q0.256383,0.272365 0.299114,0.287497l0.071218,0.075657l0.28487,0.257234q0.24214,0.226971 0.626714,0.499336t0.868854,0.559862t1.025532,0.484205t0.769149,0.287497t0.754906,0.181577t0.81188,0.136183t0.370331,0.030263l0.099705,0l0,-0.015131l-0.014244,-0.030263l-0.028487,-0.181577q-0.028487,-0.196708 -0.028487,-0.529599t0.056974,-0.635519t0.142435,-0.574993t0.199409,-0.484205l0.256383,-0.393417q0.156679,-0.226971 0.398818,-0.469074t0.56974,-0.438811t0.598227,-0.287497t0.455792,-0.121051t0.185166,-0.045394z"/>
 </g>
</svg>